# xmcd
#
# Track frame offsets: 
#        150
#        20488
#        48047
#        71200
#        121710
#        148646
#        174882
#        201876
#        223008
#        247565
#
# Disc length: 3865 seconds
#
# Revision: 0
# Processed by: cddbd v1.5.2PL0 Copyright (c) Steve Scherf et al.
# Submitted via: ExactAudioCopy v0.99pb4
#
DISCID=820f170a
DTITLE=Mighty Sam McClain - Jazz Festical Bern 2000
DYEAR=2000
DGENRE=Blues
TTITLE0=Sledgehammer Soul
TTITLE1=I'm A Man
TTITLE2=Thank You
TTITLE3=No More Tears
TTITLE4=Pray
TTITLE5=Hangin' On The Cross
TTITLE6=New Man In Town
TTITLE7=Somebody Help me
TTITLE8=Band Intro
TTITLE9=Long Train Running
EXTD=
EXTT0=
EXTT1=
EXTT2=
EXTT3=
EXTT4=
EXTT5=
EXTT6=
EXTT7=
EXTT8=
EXTT9=
PLAYORDER=
